<?xml version="1.0" encoding="utf-8"?>
<!-- Generator: Adobe Illustrator 23.0.5, SVG Export Plug-In . SVG Version: 6.00 Build 0)  -->
<svg version="1.1" xmlns="http://www.w3.org/2000/svg" xmlns:xlink="http://www.w3.org/1999/xlink" x="0px" y="0px"
	 viewBox="0 0 500 500" style="enable-background:new 0 0 500 500;" xml:space="preserve">
<g id="Floor">
	<ellipse style="fill:#F5F5F5;" cx="250.47" cy="363.75" rx="209.77" ry="121.11"/>
</g>
<g id="Shadows">
	<ellipse style="fill:#E0E0E0;" cx="217.1" cy="377.74" rx="49.24" ry="28.43"/>
	<ellipse style="fill:#E0E0E0;" cx="300.58" cy="398.15" rx="59.62" ry="34.42"/>
</g>
<g id="Mailbox">
	<g>
		<g>
			<g>
				<path style="fill:#37474F;" d="M229.1,367.68c6.59,3.81,6.59,9.98,0,13.78c-6.59,3.81-17.28,3.81-23.87,0
					c-6.59-3.81-6.59-9.98,0-13.78C211.82,363.88,222.51,363.88,229.1,367.68z"/>
				<rect x="200.28" y="366.86" style="fill:#37474F;" width="33.76" height="7.71"/>
			</g>
			<path style="fill:#455A64;" d="M229.1,359.97c6.59,3.81,6.59,9.98,0,13.78c-6.59,3.81-17.28,3.81-23.87,0
				c-6.59-3.81-6.59-9.98,0-13.78C211.82,356.16,222.51,356.16,229.1,359.97z"/>
		</g>
		<g>
			<path style="fill:#263238;" d="M222.78,361.72c3.1,1.79,3.1,4.7,0,6.49c-3.1,1.79-8.14,1.79-11.24,0c-3.1-1.79-3.1-4.7,0-6.49
				C214.65,359.93,219.68,359.93,222.78,361.72z"/>
			<rect x="209.21" y="219.41" style="fill:#263238;" width="15.9" height="145.56"/>
		</g>
		<g>
			<g>
				<polygon style="fill:#BA68C8;" points="140.61,217.78 140.61,165.15 196.33,133.29 201.35,181.95 				"/>
				<polygon style="opacity:0.5;" points="140.61,217.78 140.61,165.15 196.33,133.29 201.35,181.95 				"/>
				<polygon style="fill:#BA68C8;" points="140.61,217.78 201.35,181.95 201.35,239.22 188.79,245.6 				"/>
				<polygon style="opacity:0.3;" points="140.61,217.78 201.35,181.95 201.35,239.22 188.79,245.6 				"/>
				<g>
					<path style="fill:#BA68C8;" d="M282.1,152.19l-5.76,3.17l-35.06,19.2l-6.34,3.48l-43.82,24c-2.78-4.7-10.01-26.62-13.85-30.59
						c-3.83-3.96-8.1-7.4-12.58-9.99c-5.5-3.18-10.66-4.69-15.1-4.69c-2.83,0-5.37,0.61-7.52,1.79l86.61-50l0.03-0.02l1.72-0.99
						l0.02-0.01c0.25-0.12,0.5-0.24,0.76-0.34c0.26-0.1,0.51-0.2,0.78-0.29c0.01-0.01,0.03-0.01,0.05-0.02
						c0.26-0.08,0.51-0.16,0.78-0.24c0.28-0.08,0.57-0.14,0.85-0.21c0.23-0.05,0.45-0.09,0.68-0.13c0.12-0.02,0.25-0.04,0.37-0.05
						c0.4-0.06,0.81-0.1,1.23-0.13c0.16-0.02,0.34-0.02,0.5-0.03c0.28-0.01,0.56-0.02,0.84-0.02c2.22,0,4.63,0.38,7.16,1.15
						c2.53,0.78,5.21,1.95,7.95,3.54c0.14,0.08,0.29,0.16,0.43,0.26C267.35,119.57,279.37,136.88,282.1,152.19z"/>
					<path style="fill:#BA68C8;" d="M142.04,158.56l-0.07,0.04l0,0C142,158.59,142.02,158.57,142.04,158.56z"/>
				</g>
				<g style="opacity:0.3;">
					<path d="M282.1,152.19l-5.76,3.17l-35.06,19.2l-6.34,3.48l-43.82,24c-2.78-4.7-10.01-26.62-13.85-30.59
						c-3.83-3.96-8.1-7.4-12.58-9.99c-5.5-3.18-10.66-4.69-15.1-4.69c-2.83,0-5.37,0.61-7.52,1.79l86.61-50l0.03-0.02l1.72-0.99
						l0.02-0.01c0.25-0.12,0.5-0.24,0.76-0.34c0.26-0.1,0.51-0.2,0.78-0.29c0.01-0.01,0.03-0.01,0.05-0.02
						c0.26-0.08,0.51-0.16,0.78-0.24c0.28-0.08,0.57-0.14,0.85-0.21c0.23-0.05,0.45-0.09,0.68-0.13c0.12-0.02,0.25-0.04,0.37-0.05
						c0.4-0.06,0.81-0.1,1.23-0.13c0.16-0.02,0.34-0.02,0.5-0.03c0.28-0.01,0.56-0.02,0.84-0.02c2.22,0,4.63,0.38,7.16,1.15
						c2.53,0.78,5.21,1.95,7.95,3.54c0.14,0.08,0.29,0.16,0.43,0.26C267.35,119.57,279.37,136.88,282.1,152.19z"/>
					<path d="M142.04,158.56l-0.07,0.04l0,0C142,158.59,142.02,158.57,142.04,158.56z"/>
				</g>
				<g>
					<path style="fill:#BA68C8;" d="M275.04,133.96L275.04,133.96c0.07,0.13,0.15,0.26,0.22,0.39
						C275.19,134.22,275.12,134.09,275.04,133.96z"/>
					<path style="fill:#BA68C8;" d="M279.65,143.5c1.11,2.92,1.94,5.84,2.45,8.69l-5.76,3.17l-35.06,19.2l-6.34,3.48l-43.82,24
						c0,0,0,0,0,0l0,0l3.84,54.26l87.74-50.69v-47.11C282.69,153.74,281.6,148.62,279.65,143.5z"/>
					<path style="fill:#BA68C8;" d="M278.35,140.36c-0.37-0.82-0.76-1.65-1.17-2.47C277.59,138.71,277.98,139.54,278.35,140.36z"/>
					<path style="fill:#BA68C8;" d="M275.66,135.04c0.43,0.76,0.84,1.53,1.24,2.3C276.5,136.56,276.09,135.8,275.66,135.04z"/>
					<path style="fill:#BA68C8;" d="M279.62,143.41c-0.34-0.89-0.71-1.79-1.1-2.68C278.9,141.62,279.27,142.51,279.62,143.41z"/>
				</g>
				<g style="opacity:0.5;">
					<path d="M275.04,133.96L275.04,133.96c0.07,0.13,0.15,0.26,0.22,0.39C275.19,134.22,275.12,134.09,275.04,133.96z"/>
					<path d="M279.65,143.5c1.11,2.92,1.94,5.84,2.45,8.69l-5.76,3.17l-35.06,19.2l-6.34,3.48l-43.82,24c0,0,0,0,0,0l0,0l3.84,54.26
						l87.74-50.69v-47.11C282.69,153.74,281.6,148.62,279.65,143.5z"/>
					<path d="M278.35,140.36c-0.37-0.82-0.76-1.65-1.17-2.47C277.59,138.71,277.98,139.54,278.35,140.36z"/>
					<path d="M275.66,135.04c0.43,0.76,0.84,1.53,1.24,2.3C276.5,136.56,276.09,135.8,275.66,135.04z"/>
					<path d="M279.62,143.41c-0.34-0.89-0.71-1.79-1.1-2.68C278.9,141.62,279.27,142.51,279.62,143.41z"/>
				</g>
				<path style="fill:#BA68C8;" d="M191.12,202.03"/>
				<path style="fill:#BA68C8;" d="M149.59,162.93c3.49,0,7.65,1.34,12.02,3.86c14.73,8.51,27.18,27.92,27.18,42.39v36.42
					l-48.18-27.82v-43.55C140.61,164.89,145.49,162.93,149.59,162.93 M149.59,156.75c-9.06,0-15.15,6.27-15.15,17.48v47.11
					l60.53,34.94v-47.11c0-16.71-13.55-38.09-30.26-47.73v0C159.2,158.27,154.03,156.75,149.59,156.75L149.59,156.75z"/>
			</g>
			<g>
				<path style="fill:#BA68C8;" d="M134.44,221.34l-32.59,17.99c-14.19,7.82-14.4,28.14-0.37,36.24l0,0
					c18.47,10.66,41.21,10.67,59.69,0.02l33.79-19.3L134.44,221.34z"/>
				<path style="opacity:0.2;fill:#FFFFFF;" d="M134.44,221.34l-32.59,17.99c-14.19,7.82-14.4,28.14-0.37,36.24l0,0
					c18.47,10.66,41.21,10.67,59.69,0.02l33.79-19.3L134.44,221.34z"/>
			</g>
		</g>
		<g>
			<g>
				<polygon style="fill:#E0E0E0;" points="215.15,241.93 208.35,245.86 208.35,180.21 215.15,176.28 				"/>
				<polygon style="fill:#E0E0E0;" points="227.99,181.99 208.35,193.32 208.35,180.21 227.99,168.87 				"/>
			</g>
			<g>
				<path style="fill:#BA68C8;" d="M218.08,239.63c0,4.07-2.86,9.02-6.38,11.05c-3.52,2.03-6.38,0.39-6.38-3.68
					s2.86-9.02,6.38-11.05C215.22,233.91,218.08,235.56,218.08,239.63z"/>
				<path style="opacity:0.2;" d="M218.08,239.63c0,4.07-2.86,9.02-6.38,11.05c-3.52,2.03-6.38,0.39-6.38-3.68s2.86-9.02,6.38-11.05
					C215.22,233.91,218.08,235.56,218.08,239.63z"/>
				<path style="fill:#BA68C8;" d="M220.2,240.86c0,4.07-2.86,9.02-6.38,11.05c-3.52,2.03-6.38,0.39-6.38-3.68s2.86-9.02,6.38-11.05
					C217.35,235.14,220.2,236.79,220.2,240.86z"/>
			</g>
		</g>
	</g>
</g>
<g id="Plant">
	<g>
		<g>
			<path style="fill:#BA68C8;" d="M362.72,348.98l11.29,6.56c0,0-5.7-18.19-2.53-36.48c1.19-6.91,3.71-10.34,4.59-12.18
				c0.89-1.84,7.69-13.25,1.7-18.51c-5.99-5.26-20.05,5.2-19.42,33.38C358.67,336.21,362.72,348.98,362.72,348.98z"/>
			<path style="opacity:0.3;" d="M362.72,348.98l11.29,6.56c0,0-5.7-18.19-2.53-36.48c1.19-6.91,3.71-10.34,4.59-12.18
				c0.89-1.84,7.69-13.25,1.7-18.51c-5.99-5.26-20.05,5.2-19.42,33.38C358.67,336.21,362.72,348.98,362.72,348.98z"/>
			<path style="fill:#FFFFFF;" d="M367.96,352.54c-0.21,0-0.4-0.13-0.47-0.33c-0.04-0.12-4.31-11.97-4.09-30.98
				c0.23-19.13,10.28-29.32,10.38-29.42c0.2-0.2,0.52-0.2,0.71,0c0.2,0.2,0.2,0.52,0,0.71c-0.1,0.1-9.86,10.03-10.08,28.72
				c-0.22,18.81,3.98,30.51,4.03,30.62c0.1,0.26-0.04,0.55-0.3,0.65C368.08,352.53,368.02,352.54,367.96,352.54z"/>
		</g>
		<g>
			<path style="fill:#BA68C8;" d="M371.47,354.11l18.65,10.97c0,0,8.54-1.26,7.89-9.3c-0.65-8.04-4.12-9.93,0.2-13.47
				c4.32-3.53,5.44-3.77,5.23-7.23c-0.21-3.46-2.54-4.97-3.63-6.34c-1.1-1.37-4.15-4.25-2-8.43c2.15-4.18,5.06-8.21,0.74-10.12
				c-2.58-1.14-6.92,0.29-9.8,3.34c-2.88,3.05-5.25,5.25-7.98,5.96c-2.73,0.71-8.41,0.77-8.22,5.46c0.19,4.7,1.41,6.32,0.27,8.41
				C370.68,337.29,361.51,339.41,371.47,354.11z"/>
			<path style="fill:#FFFFFF;" d="M379.07,359.08c-0.26,0-0.48-0.2-0.5-0.46c-0.02-0.28-2.05-28.09,17.27-46.35
				c0.2-0.19,0.52-0.18,0.71,0.02c0.19,0.2,0.18,0.52-0.02,0.71c-18.96,17.92-16.98,45.26-16.96,45.53
				c0.02,0.28-0.18,0.52-0.46,0.54C379.1,359.08,379.08,359.08,379.07,359.08z"/>
			<path style="fill:#FFFFFF;" d="M382.41,335.24c-0.26,0-0.48-0.2-0.5-0.47c-0.54-7.3-5.62-11.05-5.67-11.09
				c-0.23-0.16-0.28-0.48-0.11-0.7c0.16-0.23,0.48-0.28,0.7-0.11c0.22,0.16,5.51,4.05,6.09,11.84c0.02,0.28-0.19,0.52-0.47,0.54
				C382.44,335.24,382.42,335.24,382.41,335.24z"/>
			<path style="fill:#FFFFFF;" d="M381.04,339.99c-0.12,0-0.24-0.04-0.34-0.13c-0.21-0.19-0.22-0.51-0.04-0.71
				c0.2-0.23,5.06-5.48,16.3-3.94c0.28,0.04,0.47,0.29,0.43,0.57c-0.04,0.28-0.29,0.47-0.57,0.43c-10.72-1.47-15.37,3.56-15.42,3.61
				C381.31,339.93,381.17,339.99,381.04,339.99z"/>
		</g>
	</g>
</g>
<g id="Paper_plane">
	<g>
		<path style="fill:#263238;" d="M157.35,190.53c-0.89,0-1.79-0.04-2.67-0.11c-0.51-0.04-0.88-0.49-0.84-1
			c0.04-0.51,0.5-0.89,1-0.84c1.19,0.1,2.39,0.13,3.57,0.09c0.5-0.01,0.93,0.38,0.95,0.89c0.02,0.51-0.38,0.93-0.89,0.95
			C158.09,190.53,157.72,190.53,157.35,190.53z M162.09,190.15c-0.44,0-0.83-0.32-0.91-0.77c-0.08-0.5,0.26-0.98,0.76-1.06
			c1.18-0.19,2.34-0.47,3.46-0.81c0.49-0.15,1,0.13,1.15,0.61c0.15,0.49-0.12,1-0.61,1.15c-1.2,0.37-2.44,0.66-3.7,0.87
			C162.19,190.15,162.14,190.15,162.09,190.15z M151.11,189.89c-0.06,0-0.12-0.01-0.19-0.02c-1.23-0.25-2.46-0.58-3.66-0.98
			c-0.48-0.16-0.74-0.68-0.58-1.16c0.16-0.48,0.68-0.75,1.16-0.58c1.13,0.37,2.29,0.68,3.45,0.92c0.5,0.1,0.82,0.59,0.72,1.09
			C151.92,189.59,151.54,189.89,151.11,189.89z M169.11,187.98c-0.35,0-0.68-0.19-0.83-0.53c-0.22-0.46-0.02-1.01,0.44-1.23
			c0.21-0.1,0.43-0.2,0.64-0.31c0.45-0.23,1.01-0.05,1.24,0.4c0.23,0.45,0.05,1.01-0.4,1.24c-0.23,0.12-0.46,0.23-0.69,0.34
			C169.37,187.96,169.24,187.98,169.11,187.98z M144.14,187.59c-0.13,0-0.26-0.03-0.39-0.09c-1.13-0.53-2.25-1.12-3.33-1.78
			c-0.44-0.26-0.58-0.83-0.31-1.26c0.26-0.44,0.83-0.58,1.26-0.31c1.03,0.62,2.09,1.19,3.16,1.68c0.46,0.21,0.66,0.76,0.45,1.22
			C144.82,187.39,144.48,187.59,144.14,187.59z M137.84,183.79c-0.19,0-0.39-0.06-0.55-0.18c-0.99-0.74-1.96-1.55-2.9-2.41
			c-0.38-0.34-0.4-0.93-0.06-1.3c0.34-0.38,0.92-0.4,1.3-0.06c0.89,0.82,1.82,1.59,2.76,2.29c0.41,0.31,0.49,0.88,0.18,1.29
			C138.4,183.67,138.12,183.79,137.84,183.79z M132.41,178.84c-0.25,0-0.5-0.1-0.68-0.3c-0.84-0.91-1.65-1.88-2.41-2.88
			c-0.31-0.4-0.23-0.98,0.17-1.29c0.41-0.31,0.98-0.23,1.29,0.17c0.73,0.96,1.51,1.89,2.31,2.76c0.34,0.38,0.32,0.96-0.06,1.3
			C132.85,178.76,132.63,178.84,132.41,178.84z M127.93,173.01c-0.3,0-0.6-0.15-0.77-0.42c-0.4-0.63-0.79-1.26-1.16-1.9
			c-0.25-0.44-0.5-0.89-0.74-1.34c-0.24-0.45-0.07-1.01,0.38-1.24c0.45-0.24,1.01-0.07,1.25,0.38c0.23,0.43,0.47,0.86,0.71,1.28
			c0.36,0.62,0.73,1.23,1.11,1.83c0.28,0.43,0.15,1-0.28,1.27C128.28,172.96,128.1,173.01,127.93,173.01z M124.49,166.51
			c-0.36,0-0.7-0.21-0.85-0.56c-0.49-1.16-0.94-2.35-1.31-3.53c-0.15-0.48,0.11-1,0.6-1.16c0.49-0.16,1,0.11,1.16,0.6
			c0.36,1.13,0.78,2.26,1.25,3.37c0.2,0.47-0.02,1.01-0.49,1.21C124.73,166.49,124.61,166.51,124.49,166.51z M122.25,159.51
			c-0.42,0-0.81-0.29-0.9-0.73c-0.27-1.24-0.47-2.5-0.6-3.73c-0.05-0.51,0.31-0.96,0.82-1.01c0.13-0.02,0.26,0,0.38,0.04
			c0.14-0.24,0.38-0.41,0.67-0.45c1.17-0.16,2.33-0.42,3.45-0.76c0.49-0.15,1,0.12,1.15,0.61c0.15,0.49-0.12,1-0.61,1.15
			c-1.21,0.37-2.46,0.65-3.73,0.83c-0.08,0.01-0.16,0.01-0.23,0c0.12,0.98,0.29,1.96,0.5,2.94c0.11,0.5-0.21,0.99-0.71,1.09
			C122.38,159.5,122.31,159.51,122.25,159.51z M119.08,155.69C119.08,155.69,119.08,155.69,119.08,155.69
			c-1.26-0.01-2.54-0.12-3.8-0.31c-0.5-0.08-0.85-0.54-0.77-1.05c0.08-0.5,0.54-0.84,1.05-0.77c1.18,0.18,2.37,0.27,3.54,0.29
			c0.51,0.01,0.92,0.42,0.91,0.93C120,155.28,119.59,155.69,119.08,155.69z M111.82,154.61c-0.08,0-0.17-0.01-0.25-0.04
			c-1.21-0.35-2.41-0.77-3.58-1.27c-0.47-0.2-0.68-0.74-0.49-1.21c0.2-0.47,0.74-0.68,1.21-0.49c1.1,0.47,2.23,0.87,3.36,1.19
			c0.49,0.14,0.77,0.65,0.63,1.14C112.59,154.34,112.22,154.61,111.82,154.61z M129.75,153.28c-0.33,0-0.66-0.18-0.82-0.5
			c-0.23-0.45-0.06-1.01,0.39-1.24c1.08-0.56,2.05-1.21,2.88-1.92c0.38-0.33,0.96-0.29,1.3,0.1c0.33,0.38,0.29,0.97-0.1,1.3
			c-0.93,0.81-2.02,1.53-3.23,2.16C130.04,153.25,129.9,153.28,129.75,153.28z M121.5,152.2c0,0-0.01,0-0.01,0
			c-0.51-0.01-0.91-0.42-0.91-0.93c0.02-1.28,0.12-2.55,0.29-3.79c0.07-0.5,0.53-0.86,1.04-0.78c0.5,0.07,0.85,0.54,0.78,1.04
			c-0.17,1.16-0.26,2.35-0.27,3.55C122.41,151.79,122,152.2,121.5,152.2z M105.06,151.73c-0.16,0-0.31-0.04-0.46-0.12
			c-1.09-0.63-2.16-1.34-3.16-2.09c-0.41-0.31-0.49-0.88-0.18-1.29c0.3-0.41,0.88-0.49,1.29-0.18c0.94,0.71,1.95,1.37,2.97,1.97
			c0.44,0.25,0.59,0.82,0.34,1.26C105.69,151.56,105.38,151.73,105.06,151.73z M135.18,148.45c-0.16,0-0.32-0.04-0.46-0.13
			c-0.44-0.26-0.58-0.82-0.33-1.26c0.27-0.46,0.5-0.94,0.66-1.43c0.18-0.52,0.29-1.07,0.34-1.64c0.04-0.51,0.46-0.89,0.99-0.85
			c0.51,0.04,0.89,0.48,0.85,0.98c-0.05,0.74-0.2,1.45-0.44,2.12c-0.21,0.6-0.48,1.19-0.81,1.75
			C135.8,148.29,135.5,148.45,135.18,148.45z M99.2,147.31c-0.23,0-0.46-0.09-0.64-0.26c-0.21-0.2-0.41-0.41-0.62-0.62
			c-0.67-0.69-1.32-1.42-1.94-2.18c-0.32-0.39-0.26-0.97,0.13-1.29c0.39-0.32,0.97-0.26,1.29,0.13c0.58,0.72,1.2,1.41,1.83,2.06
			c0.19,0.2,0.38,0.39,0.57,0.58c0.37,0.35,0.37,0.94,0.02,1.3C99.68,147.21,99.44,147.31,99.2,147.31z M122.56,144.93
			c-0.09,0-0.18-0.01-0.27-0.04c-0.49-0.15-0.76-0.66-0.61-1.15c0.41-1.35,0.95-2.56,1.59-3.58c0.27-0.43,0.84-0.56,1.27-0.29
			c0.43,0.27,0.56,0.84,0.29,1.27c-0.55,0.88-1.02,1.93-1.39,3.13C123.32,144.68,122.96,144.93,122.56,144.93z M94.56,141.61
			c-0.3,0-0.6-0.15-0.77-0.42c-0.67-1.04-1.31-2.13-1.89-3.27c-0.23-0.45-0.05-1.01,0.4-1.24c0.45-0.23,1.01-0.05,1.24,0.4
			c0.55,1.08,1.16,2.12,1.8,3.1c0.28,0.43,0.16,1-0.27,1.27C94.91,141.56,94.73,141.61,94.56,141.61z M135.73,141.38
			c-0.36,0-0.7-0.21-0.85-0.57c-0.43-1.04-1.09-1.89-1.91-2.43c-0.42-0.28-0.54-0.85-0.25-1.28c0.28-0.42,0.86-0.54,1.28-0.25
			c1.12,0.75,2.02,1.88,2.59,3.26c0.19,0.47-0.03,1.01-0.5,1.2C135.97,141.36,135.85,141.38,135.73,141.38z M126.56,138.92
			c-0.3,0-0.59-0.14-0.76-0.41c-0.28-0.42-0.17-0.99,0.25-1.28c1.2-0.81,2.53-1.3,3.86-1.41c0.5-0.05,0.95,0.33,1,0.84
			c0.04,0.51-0.33,0.95-0.84,1c-1.01,0.09-2.05,0.47-2.98,1.1C126.92,138.87,126.74,138.92,126.56,138.92z M91.19,135.08
			c-0.37,0-0.71-0.22-0.85-0.58c-0.46-1.15-0.88-2.34-1.24-3.55c-0.15-0.49,0.13-1,0.62-1.15c0.48-0.15,1,0.13,1.15,0.61
			c0.35,1.16,0.75,2.3,1.19,3.4c0.19,0.47-0.04,1.01-0.51,1.2C91.42,135.06,91.31,135.08,91.19,135.08z M89.06,128.04
			c-0.42,0-0.81-0.3-0.9-0.73c-0.26-1.21-0.47-2.45-0.64-3.7c-0.07-0.5,0.29-0.97,0.79-1.03c0.5-0.06,0.97,0.29,1.03,0.79
			c0.16,1.2,0.37,2.39,0.62,3.56c0.11,0.5-0.21,0.99-0.71,1.09C89.19,128.03,89.12,128.04,89.06,128.04z M88.08,120.75
			c-0.48,0-0.89-0.38-0.92-0.87c-0.06-0.99-0.09-1.99-0.09-2.98c0-0.26,0-0.51,0.01-0.77c0.01-0.51,0.46-0.92,0.93-0.91
			c0.51,0.01,0.91,0.43,0.91,0.93c0,0.25-0.01,0.5-0.01,0.74c0,0.95,0.03,1.92,0.08,2.87c0.03,0.51-0.36,0.94-0.87,0.97
			C88.12,120.75,88.1,120.75,88.08,120.75z"/>
		<g>
			<polygon style="fill:#BA68C8;" points="97.26,87.3 91.76,111.2 31.7,98.31 			"/>
			<polygon style="opacity:0.3;" points="97.26,87.3 91.76,111.2 31.7,98.31 			"/>
			<path style="fill:#BA68C8;" d="M31.7,98.31c-0.02,0.01,74.77-2.03,74.77-2.03l17.58,27.08L31.7,98.31z"/>
			<polygon style="fill:#BA68C8;" points="31.7,98.31 97.26,87.3 81.82,69.38 			"/>
		</g>
	</g>
</g>
<g id="Character">
	<g style="opacity:0.4;">
		<path d="M172.33,168.09l-0.07,0.04l0,0C172.29,168.12,172.31,168.1,172.33,168.09z"/>
	</g>
	<g>
		<g>
			
				<rect x="275.94" y="347.14" transform="matrix(0.9997 0.0255 -0.0255 0.9997 9.3426 -7.1125)" style="fill:#945959;" width="15.83" height="32.05"/>
			<path style="fill:#37474F;" d="M271.38,218.7c0,0-1.11,54.52-0.73,76.13c0.28,16.26,2.82,65,2.82,65s10.26,6.71,21.08,1.11
				c0,0,6.24-49.23,4.72-64.05c-0.19-1.8-0.17-3.61,0.04-5.41l9.54-82.54L271.38,218.7z"/>
			<path style="fill:#37474F;" d="M281.04,374.55c0,0,8.78-1.01,10.55-3.86v-1.86c0,0,1.52,0.81,1.23,3.89
				c-0.27,2.86,0.88,7.73,1.04,13.67c0.03,0.98-0.42,1.92-1.2,2.52c-1.69,1.31-5.29,3.32-11.62,3.6c-2.22,0.1-11.09,5.79-18.48,5.79
				c-7.39,0-12.22-3.66-12.22-8.78c0-5.12,15.06-9.75,15.06-9.75l7.24-7.04c0,0-1.4-7.64,3.21-5.8
				C280.46,368.75,281.04,370.69,281.04,374.55z"/>
			<path style="fill:#FAFAFA;" d="M279.4,378.97c-0.19,0-0.37-0.12-0.44-0.31c-1.54-4.61-6.35-5.47-6.4-5.47
				c-0.25-0.04-0.42-0.28-0.38-0.53c0.04-0.25,0.29-0.42,0.53-0.38c0.22,0.04,5.41,0.96,7.12,6.09c0.08,0.24-0.05,0.5-0.29,0.58
				C279.49,378.96,279.44,378.97,279.4,378.97z"/>
			<path style="fill:#FAFAFA;" d="M276.51,381.86c-0.19,0-0.37-0.12-0.44-0.31c-1.53-4.59-6.35-5.46-6.4-5.47
				c-0.25-0.04-0.42-0.28-0.38-0.53c0.04-0.25,0.28-0.42,0.53-0.38c0.22,0.04,5.41,0.96,7.12,6.09c0.08,0.24-0.05,0.5-0.29,0.58
				C276.61,381.85,276.56,381.86,276.51,381.86z"/>
			<path style="fill:#FAFAFA;" d="M273.95,384.34c-0.19,0-0.37-0.12-0.44-0.31c-1.53-4.59-6.35-5.47-6.4-5.47
				c-0.25-0.04-0.42-0.28-0.38-0.53c0.04-0.25,0.28-0.42,0.53-0.38c0.22,0.04,5.41,0.96,7.12,6.09c0.08,0.24-0.05,0.5-0.29,0.58
				C274.05,384.33,274,384.34,273.95,384.34z"/>
			<path style="fill:#EBEBEB;" d="M250.34,389.51c0,5.06,4.72,8.69,11.98,8.77l10.35-4.15c0-10.73-7.27-14.37-7.27-14.37
				S250.34,384.4,250.34,389.51z"/>
			<g>
				<path style="fill:#263238;" d="M293.6,386.83c-1.77,1.37-5.54,3.48-12.16,3.76c-2.32,0.1-11.6,6.05-19.33,6.05
					c-5.3,0-9.35-1.8-11.36-4.67c1.31,3.78,5.67,6.31,11.8,6.31c7.39,0,16.26-5.69,18.48-5.79c6.33-0.28,9.93-2.29,11.62-3.6
					c0.72-0.56,1.14-1.4,1.18-2.3C293.76,386.68,293.69,386.77,293.6,386.83z"/>
			</g>
		</g>
		<path style="fill:#263238;" d="M280.55,226.33c0,0,1.45,12.34,10.91,18.87l8.35,41.87l5.36-52.35L280.55,226.33z"/>
		<g>
			
				<rect x="320.35" y="356.7" transform="matrix(0.997 -0.078 0.078 0.997 -28.0555 26.7231)" style="fill:#945959;" width="15.83" height="32.05"/>
			<path style="fill:#37474F;" d="M328.83,219.95c0,0,1.91,7.23,2.84,37.05c0.74,23.64,1.29,37.24,1.49,41.86
				c0.05,1.15,0.17,2.29,0.37,3.43c0.76,4.41,2.81,17.53,3.9,36.04c1.35,22.98,1.46,33.89,1.46,33.89s-9.76,7.63-21.54,1.64
				l-11.39-68.55l-11.97-63.6c0,0-16.46-6.27-17.91-23.03L328.83,219.95z"/>
			<path style="fill:#37474F;" d="M336.83,380.76l0.24,3.12c0,0-1.88,2.64-4.1,3.41c0,0-1.69-6.22-4.71-6.54
				c-3.01-0.32-9.26-0.59-8.42,2.87c0.84,3.46,0.87,5.5,0.87,5.5l-5.79,10.81c0,0-11.78,10.14-6.85,16.61
				c4.92,6.47,21.43,3.01,23.06-7.14c0.5-3.09,2.33-5.8,4.94-7.53c2.61-1.74,3.11-4.15,2.81-6.47c-0.3-2.32-1-6.78-0.78-8.8
				C338.32,384.59,338.86,380.79,336.83,380.76z"/>
			<path style="fill:#EBEBEB;" d="M308.07,416.54c4.09,5.37,16.15,3.9,21.07-2.57c0.21-1,0.33-2.06,0.33-3.19
				c0-11.55-14.54-10.85-14.54-10.85S303.14,410.08,308.07,416.54z"/>
			<g>
				<path style="fill:#263238;" d="M338.88,395.4c-0.02-0.17-0.05-0.37-0.08-0.57c-0.22,1.67-1.02,3.26-2.91,4.52
					c-2.69,1.8-4.59,4.59-5.1,7.79c-1.66,10.38-18.36,13.98-23.66,7.59c0.19,0.63,0.49,1.23,0.93,1.81
					c4.92,6.47,21.43,3.01,23.06-7.14c0.5-3.09,2.33-5.8,4.94-7.53C338.67,400.13,339.18,397.72,338.88,395.4z"/>
			</g>
			<path style="fill:#FAFAFA;" d="M329.27,391.54c-0.11,0-0.23-0.04-0.32-0.13c-3.52-3.33-8.18-1.82-8.23-1.8
				c-0.24,0.08-0.5-0.05-0.58-0.29c-0.08-0.24,0.05-0.5,0.29-0.58c0.21-0.07,5.22-1.71,9.15,2c0.19,0.17,0.19,0.47,0.02,0.65
				C329.51,391.49,329.39,391.54,329.27,391.54z"/>
			<path style="fill:#FAFAFA;" d="M327.25,395.55c-0.11,0-0.23-0.04-0.32-0.13c-3.52-3.32-8.18-1.82-8.23-1.8
				c-0.24,0.08-0.5-0.05-0.58-0.29c-0.08-0.24,0.05-0.5,0.29-0.58c0.21-0.07,5.22-1.71,9.15,2c0.18,0.17,0.19,0.47,0.02,0.65
				C327.5,395.5,327.38,395.55,327.25,395.55z"/>
			<path style="fill:#FAFAFA;" d="M325.24,399.56c-0.11,0-0.23-0.04-0.32-0.13c-3.52-3.32-8.18-1.82-8.23-1.8
				c-0.24,0.08-0.5-0.05-0.58-0.29c-0.08-0.24,0.05-0.5,0.29-0.58c0.21-0.07,5.22-1.71,9.15,2c0.18,0.17,0.19,0.47,0.02,0.65
				C325.49,399.51,325.36,399.56,325.24,399.56z"/>
		</g>
		<path style="fill:#945959;" d="M224.06,90.6c0,0-1.73-7.43-1.97-12.26c-0.24-4.83-1.64-6.52-4.59-4.1
			c-2.94,2.41-9.67,9.45-9.27,14.92c0.47,6.32,1.91,11.18,5.59,17.05l12.04-4.46L224.06,90.6z"/>
		<path style="fill:#945959;" d="M261.34,134.32l-17.23-3.81c0,0-7.34-11.89-11.59-18.16c-4.25-6.27-6.66-10.61-6.66-10.61
			l-12.04,4.46c0,0,13.41,33.33,19.63,38.95c3.13,2.83,23.35,9.09,23.35,9.09S265.25,145.32,261.34,134.32z"/>
		<path style="fill:#BA68C8;" d="M283.06,139l-21.72-4.68c0,0-0.1,9.82-4.54,19.92l21.82,6.72L283.06,139z"/>
		<path style="opacity:0.3;fill:#FFFFFF;" d="M283.06,139l-21.72-4.68c0,0-0.1,9.82-4.54,19.92l21.82,6.72L283.06,139z"/>
		<path style="fill:#BA68C8;" d="M313.19,141.61l10.1,3.19l5.54,29.88l-3.28,14.48c-0.45,1.98-0.53,4.02-0.25,6.03l3.53,24.77
			c0,0-10.04,6.37-28.38,6.37s-29.06-7.63-29.06-7.63l1.39-56.38c0.53-8.75,4.18-17.03,10.29-23.32l0,0l12.53,1.45L313.19,141.61z"
			/>
		<g>
			<g>
				<path style="fill:#263238;" d="M281.35,94.18c0,0-9.65,8.47-1.26,27.36l9.81-25.53L281.35,94.18z"/>
				<g>
					<g>
						<polygon style="fill:#945959;" points="313.19,141.61 295.59,140.45 295.59,117.66 313.19,117.66 						"/>
					</g>
				</g>
				<path style="fill:#703838;" d="M295.59,139c5.94,0,14.95-5.29,14.95-8.97l1.98-12.38h-16.93V139z"/>
				<path style="fill:#945959;" d="M300.27,88.95c-5.92,0-18.52,3.3-19.97,18.8c-1.45,15.5,0.81,28.67,7.95,28.67
					c14.01,0,27.45-1.78,27.57-24.7C315.91,91.5,306.05,88.95,300.27,88.95z"/>
				<path style="fill:#263238;" d="M313.19,125.3l-2.28-7c-0.76,0.65-1.94,0.1-1.94-0.9v-12.49c0,0-5.82-1.65-5.21-6.55
					c0,0-2.98,2.66-14.41,2.66c-11.43,0-14.2-9.68-13.06-15.07c0,0,2.12,2.18,8.16,2.18c6.04,0,31.19-7.59,31.84,7.6
					c0,0,2.12-3.11,5.55,0l-4.41,2.62c0,0,5.22-0.17,4.41,7.51c-0.54,5.05-2.38,13.88-3.59,19.34c-0.67,3.05-2.49,5.71-5.08,7.45
					l0,0V125.3z"/>
				<polygon style="fill:#703838;" points="291.61,112.4 291.61,122.35 285.78,120.56 				"/>
				<g>
					<path style="fill:#263238;" d="M300.87,113.98c0,1.03-0.83,1.86-1.86,1.86s-1.86-0.83-1.86-1.86s0.83-1.86,1.86-1.86
						S300.87,112.95,300.87,113.98z"/>
					<path style="fill:#263238;" d="M286.94,112.68c0,1.03-0.83,1.86-1.86,1.86c-1.03,0-1.86-0.83-1.86-1.86
						c0-1.03,0.83-1.86,1.86-1.86C286.11,110.82,286.94,111.65,286.94,112.68z"/>
					<path style="fill:#263238;" d="M282.81,108.8l3.64-2.16c0,0-1.4-1.45-2.79-0.58C282.27,106.93,282.81,108.8,282.81,108.8z"/>
					<path style="fill:#263238;" d="M302.8,110.15l-3.64-2.16c0,0,1.4-1.45,2.79-0.58C303.33,108.28,302.8,110.15,302.8,110.15z"/>
				</g>
				<path style="fill:#703838;" d="M292.08,127.13c0,0,2.7-1.73,5.3-3.68c0,0,1.51,2.94-0.86,4.46
					C294.14,129.43,292.08,127.13,292.08,127.13z"/>
				<polygon style="fill:#253239;" points="310.75,118.4 317.19,111.42 312.56,108.64 				"/>
				<path style="fill:#945959;" d="M311.81,115.68c-2.11,3.65-1.57,8.09,1.38,9.61c1.89,0.98,7.47-1.13,9.58-4.78
					c2.11-3.65,0.92-6.79-1.95-8.45C317.96,110.41,313.92,112.03,311.81,115.68z"/>
			</g>
			<path style="fill:#945959;" d="M295.59,140.45l-2.4,3.81c-1.96,3.11-0.79,7.23,2.51,8.84h0c5.99,2.92,13.2,0.04,15.53-6.21
				l1.96-5.28L295.59,140.45z"/>
		</g>
		<path style="fill:#945959;" d="M225.86,101.74c0,0,2.94-4.48,2.89-8.73c-0.05-4.25,0.48-6.23,1.21-7.24
			c0.72-1.01-0.09-2.51-2.05-1.98c-1.66,0.45-3.71,2.98-4.16,5.35c-0.14,0.76-0.6,1.42-1.28,1.78c-2.07,1.11-5.92,4.29-4.09,12.01
			L225.86,101.74z"/>
		<path style="fill:#703838;" d="M218.04,97.66c-0.02,0-0.04,0-0.05,0c-0.19-0.03-0.32-0.21-0.29-0.39
			c0.62-3.95,3.16-5.86,4.61-6.64c0.57-0.31,0.97-0.87,1.1-1.54c0.03-0.19,0.21-0.31,0.4-0.28c0.19,0.04,0.31,0.22,0.28,0.4
			c-0.16,0.88-0.69,1.62-1.45,2.02c-1.34,0.72-3.68,2.48-4.26,6.14C218.36,97.54,218.21,97.66,218.04,97.66z"/>
		<path style="fill:#945959;" d="M233.54,81.28"/>
		<g>
			<polygon style="fill:#945959;" points="324.77,181.63 329.21,190.99 352,200.01 342.81,172.16 			"/>
			<g>
				<path style="fill:#BA68C8;" d="M321.94,144.37c0,0-7.6,7.81-4.31,18.82c3.28,11.01,7.14,18.44,7.14,18.44s12.81,0.39,18.04-9.46
					l-6.53-16.48c-2.08-5.25-6.51-9.2-11.96-10.67L321.94,144.37z"/>
				<path style="opacity:0.3;fill:#FFFFFF;" d="M321.94,144.37c0,0-7.6,7.81-4.31,18.82c3.28,11.01,7.14,18.44,7.14,18.44
					s12.81,0.39,18.04-9.46l-6.53-16.48c-2.08-5.25-6.51-9.2-11.96-10.67L321.94,144.37z"/>
			</g>
			<path style="fill:#945959;" d="M327.93,189.25c5.76,1.69,22.74,6.72,22.74,6.72s0.13,0.37,1.33,4.04
				c1.84,5.65-3.97,19.33-24.68,9.4c-20.7-9.92-28.23-15.23-28.23-15.23l2.25-12.55C301.34,181.63,321.36,187.32,327.93,189.25z"/>
			<polygon style="fill:#703838;" points="328.54,189.54 339.25,192.63 327.26,186.84 			"/>
			<g>
				<path style="fill:#37474F;" d="M298.14,199.81l-13.44-1.43c-0.98-0.1-1.8-0.8-2.05-1.76l-7.35-27.64
					c-0.22-0.82,0.42-1.61,1.26-1.57l13,0.61c0.99,0.05,1.84,0.73,2.1,1.68l7.82,28.53C299.71,199.09,299.01,199.91,298.14,199.81z"
					/>
				<path style="fill:#263238;" d="M280.55,171.49c0,0.64-0.52,1.16-1.16,1.16c-0.64,0-1.16-0.52-1.16-1.16
					c0-0.64,0.52-1.16,1.16-1.16C280.03,170.33,280.55,170.85,280.55,171.49z"/>
			</g>
			<path style="fill:#945959;" d="M301.34,181.63c0,0-3.89-6.76-8.71-8.4l1.93,7.43c0,0-3.67,0.29-7.82,0.29
				c-4.15,0-8.69-2.8-10.04-3.52c-1.35-0.73-2.53,4.31,2.69,13.76c5.23,9.46,19.71,2.99,19.71,2.99L301.34,181.63z"/>
		</g>
	</g>
</g>
<g id="Clouds">
	<g>
		<path style="fill:#E6E6E6;" d="M360.06,45.63l7.24,4.12v-2.56c-0.01-0.18-0.02-0.36-0.02-0.54c0-0.18,0.01-0.35,0.02-0.52v-0.06
			l0,0c0.26-3.4,2.83-4.7,5.97-2.88c1.34,0.77,2.57,1.99,3.56,3.42c0.71-4.61,4.47-6.28,9.02-3.65c5.05,2.92,9.15,10.01,9.15,15.84
			l0,5.49c0,0.88,0.47,1.7,1.23,2.15l4.26,2.5c1.88,1.1,3.03,3.12,3.03,5.3c0,1.95-2.11,3.16-3.79,2.19l-39.56-22.85
			c-2.14-1.24-3.45-3.52-3.45-5.99C356.72,45.86,358.57,44.78,360.06,45.63z"/>
		<path style="fill:#E6E6E6;" d="M391.44,91.68l5.35,3.05v-1.89c-0.01-0.14-0.02-0.27-0.02-0.4c0-0.13,0.01-0.26,0.02-0.38V92l0,0
			c0.19-2.51,2.09-3.47,4.42-2.13c0.99,0.57,1.9,1.47,2.64,2.53c0.52-3.41,3.31-4.64,6.67-2.7c3.74,2.16,6.77,7.4,6.77,11.72l0,4.06
			c0,0.65,0.35,1.26,0.91,1.59l3.15,1.85c1.39,0.82,2.24,2.31,2.24,3.92c0,1.44-1.56,2.34-2.81,1.62l-29.26-16.91
			c-1.58-0.91-2.56-2.6-2.56-4.43C388.97,91.85,390.34,91.05,391.44,91.68z"/>
	</g>
</g>
</svg>
