<svg id="Layer_1" data-name="Layer 1" xmlns="http://www.w3.org/2000/svg" viewBox="0 0 371.89 355.9"><defs><style>.cls-1,.cls-4{fill:#fff;}.cls-2{fill:#202020;}.cls-3{font-size:94px;font-family:Exotic350BT-Bold, Exotc350 Bd BT;font-weight:700;}.cls-4{stroke:#fff;stroke-miterlimit:10;}.cls-5{letter-spacing:0em;}</style></defs><title>clock_on_white_background</title><circle class="cls-1" cx="255.89" cy="243.5" r="107"/><path class="cls-2" d="M734.29,310.76c.29.39,1.1.3,1.05-.67l-1.23-.85Z" transform="translate(-375.11 -52.5)"/><path class="cls-2" d="M737.43,304.59c-.57-1.2-1.61-2.56-2.87-1.91,1.2,1.19.65,1.42,2.08,2.75.06,1-.62,1.64-1.08,1.42.3.38-.46,1.45.3,2.06a3.79,3.79,0,0,0,.69-4.46C736.87,304.12,737.19,304.49,737.43,304.59Z" transform="translate(-375.11 -52.5)"/><path class="cls-2" d="M706,217.14l.35.54A1.84,1.84,0,0,0,706,217.14Z" transform="translate(-375.11 -52.5)"/><path class="cls-2" d="M653.65,188.81c.46.07.67,0,.72-.13C653.93,188.67,653.57,188.68,653.65,188.81Z" transform="translate(-375.11 -52.5)"/><path class="cls-2" d="M643.63,185.71l.6.17C644,185.73,643.78,185.63,643.63,185.71Z" transform="translate(-375.11 -52.5)"/><path class="cls-2" d="M706,217.14l-.88-1.41C704.75,216,705.5,216.53,706,217.14Z" transform="translate(-375.11 -52.5)"/><path class="cls-2" d="M734.49,291.62a2.42,2.42,0,0,0,.38.81c-.07-.26-.12-.51-.17-.77Z" transform="translate(-375.11 -52.5)"/><path class="cls-2" d="M723.7,237l.27.42a3.48,3.48,0,0,0,.67.06Z" transform="translate(-375.11 -52.5)"/><path class="cls-2" d="M733.25,255.12c-.13-.45-1.23-.18-1.75-.15a1.42,1.42,0,0,1,1.09.64A1.71,1.71,0,0,0,733.25,255.12Z" transform="translate(-375.11 -52.5)"/><path class="cls-2" d="M738.76,286.91l.2.55C738.9,287.32,738.84,287.08,738.76,286.91Z" transform="translate(-375.11 -52.5)"/><path class="cls-2" d="M715.2,225a.94.94,0,0,0,.18-.4A.6.6,0,0,0,715.2,225Z" transform="translate(-375.11 -52.5)"/><path class="cls-2" d="M726.25,331.69a.82.82,0,0,0,.19.06C726.37,331.61,726.31,331.55,726.25,331.69Z" transform="translate(-375.11 -52.5)"/><path class="cls-2" d="M737.21,311.17v.33a4.21,4.21,0,0,0,.61.16Z" transform="translate(-375.11 -52.5)"/><path class="cls-2" d="M624.43,183.7l.08,0C625,183.57,624.73,183.6,624.43,183.7Z" transform="translate(-375.11 -52.5)"/><path class="cls-2" d="M519.63,304c.84-2,1.56,3.12,2.42.07C521.64,304.34,520.07,301.43,519.63,304Z" transform="translate(-375.11 -52.5)"/><path class="cls-2" d="M734.62,291.11c0-.26,0-.53,0-.8A2.65,2.65,0,0,0,734.62,291.11Z" transform="translate(-375.11 -52.5)"/><path class="cls-2" d="M522.05,304h0l.08-.31Z" transform="translate(-375.11 -52.5)"/><path class="cls-2" d="M581.77,195.62a1.36,1.36,0,0,0,.61.23C582.32,195.76,582.17,195.68,581.77,195.62Z" transform="translate(-375.11 -52.5)"/><path class="cls-2" d="M613.45,187.17h-.82A3.18,3.18,0,0,0,613.45,187.17Z" transform="translate(-375.11 -52.5)"/><path class="cls-2" d="M567.9,205.66c-.41.19-.62.15-1,.62h.23C567.2,206,567.39,205.81,567.9,205.66Z" transform="translate(-375.11 -52.5)"/><path class="cls-2" d="M554.32,216.87a2.85,2.85,0,0,0,.39-.06l.36-.43Z" transform="translate(-375.11 -52.5)"/><path class="cls-2" d="M698.88,372.45a3.34,3.34,0,0,1,1.25.26C699.41,372.28,701,370.49,698.88,372.45Z" transform="translate(-375.11 -52.5)"/><path class="cls-2" d="M735.12,291.58a.65.65,0,0,1-.5-.47c0,.19,0,.37.08.55S735,291.7,735.12,291.58Z" transform="translate(-375.11 -52.5)"/><path class="cls-2" d="M572.44,213.32l-2.19,1.36A18.87,18.87,0,0,0,572.44,213.32Z" transform="translate(-375.11 -52.5)"/><path class="cls-2" d="M589.05,389.43l.6.12A.82.82,0,0,0,589.05,389.43Z" transform="translate(-375.11 -52.5)"/><path class="cls-2" d="M564.41,219.64a3.78,3.78,0,0,0-1.61.37.94.94,0,0,0,0,.41Z" transform="translate(-375.11 -52.5)"/><path class="cls-2" d="M700.14,372.71h0Z" transform="translate(-375.11 -52.5)"/><path class="cls-2" d="M709.87,358.45c-1.52,1.9.42,1.82.75,2.77-1.62,2.52-1.73.34-3,.61a10.84,10.84,0,0,0-.85,2.54,4.5,4.5,0,0,1-1,2c-.25-.09-.5,0-.5-.39a7.85,7.85,0,0,1-2.28,3.26,8.65,8.65,0,0,0-2.43,3.53.9.9,0,0,1-.48-.08,3.61,3.61,0,0,1,1.63,1.27c-.84.77-1,2.1-1.95,1.65.55-.44.34-.77.39-1.21l-.63,1.1c-1.71-.35.91-1.43.23-2.2-.72.93-1.4,2.05-2.11,3.05a7.28,7.28,0,0,1-2.33,2.21c-1.12-.84,3-2.91.36-2.4.83-.41,1.64-.86,2.43-1.34-2.95-.28,1.33-1-1.58-1.46a13.62,13.62,0,0,0-2.8,2.46,9.46,9.46,0,0,1-2.87,2.37c-.21,1.07.87.75.66,1.82a4.77,4.77,0,0,1-2.27,1.7,3.92,3.92,0,0,1-1.87,0c-1.13-.22-2.06-.5-3.13,1.27-.34,1.26.19,2.92-2.57,3.47l0-1.78c-3,1.58-.65,2.9-4.35,3.68.3-.84,2.18-1.7,1.63-1.62-2.63,0-1.07,1.53-2.68,2.36l-.93-1.06c-3.2,1.73-6.52,4.27-10.34,5.82.09-.45.6-1.08-.43-1.16a28.5,28.5,0,0,1-7.6,2.42c-1.35.2-2.69.36-4,.49s-2.62.11-3.85.16l-1.64,1.5c-.44.07-.89-.41-.46-.69-2-.19,0,.75-.82,1.33-1.08.23-1.53-.48-.9-.92-3.15,1.58-9.48,3.1-13.1,1.91l.7-.37c-2.77-.43-3.17,2.38-5.77,1.26l.51-.2c-3-.38-6.25-.44-9.25-.86-.75-.09-1.49-.19-2.21-.31s-1.41-.33-2.08-.52a13.14,13.14,0,0,1-3.6-1.52c-.59.73-2,.22-3.41-.19s-2.69-.83-3.19.27a25.19,25.19,0,0,1-2.68-2.11,16.81,16.81,0,0,0-3.64-2.3c-1.19-.48-2.3.74-3.91.39l.41-1.16-2.51.42c-.18-.59-.34-1.21-.5-1.82l-1.5-.32c.52.31,1,1,.72,1.32a7.66,7.66,0,0,1-3.32-1.8c-.88-.83-1.41-1.69-1.29-2l-2.71-.78c-.9-.26-1.77-.6-2.67-.9.35-.37,1.24-.06,2,0-3.18-.37.17-1.4-2.74-1.73.17.42-.54.54-.72.72a8.86,8.86,0,0,0-2.24-2.1,29.94,29.94,0,0,0-3.19-1.86l.83-.45c-.8-.63-1.65-1.24-2.54-1.83s-1.8-1.19-2.7-1.83-1.85-1.26-2.76-1.94-1.78-1.42-2.64-2.17c1,1.37-.26,2.25-1.4,1.45l.46-1.33c-1.21,0,.75,1.3-1.28.85-1.19-1.3.15-1.89,1.15-1.52l-1.83-1.11c.18-.37.68-.18,1.11-.46-1.18,0-1.71-3.37-3.52-3.3l.2-.35c-.78-.83-1.48-1.52-2.13-2.14l-1.75-1.75L553.07,361c-.56-.57-1.08-1.21-1.68-1.93-.93.64-1.64-.66-3.06-1-.67-1.25-1.27-2.63-2-4a29,29,0,0,0-2.28-4.23c-1.71-1.71-1.17-.09-2.29-.66.79-.68-1-3.51.55-2.38-1.1-1.67-1.71-2.8-2.47-4-.39-.59-.8-1.21-1.32-1.94s-1-1.61-1.76-2.68c-.15.68-.06,1.32-.51,1.17-.54-.78-.49-2.1,0-2.17l.2.17c-1.84-2.32-2.39-5.7-2.72-8.89-.23-1.57-.31-3.14-.61-4.52a10.13,10.13,0,0,0-.61-1.93,6.1,6.1,0,0,0-.91-1.64l.16.22c-.7-1.43-1.5-2.86-2.12-4.34-.22-2.17,1,1.12,1.33-.57a13.36,13.36,0,0,1-1.32-3.26,19.79,19.79,0,0,1-.36-2.94,19.71,19.71,0,0,0-.83-5.7,4,4,0,0,0,.74-1.48,7.18,7.18,0,0,0,.35-1.8,32,32,0,0,0-.11-4.21c-.06-1.49-.18-3-.13-4.44a9.68,9.68,0,0,1,.91-3.76l-.72.19c-.62-1.17.48-1.31.74-2.11-.56.06-.77,1.15-1.08.42a47.1,47.1,0,0,1,2.67-14.33c.34-1.18.86-2.32,1.28-3.48s.88-2.3,1.41-3.41l1.49-3.35c.54-1.09,1.07-2.18,1.57-3.27a3.16,3.16,0,0,0-.33-3.26c-.42-.85-.61-1.77,1.08-3.47l.68,1.72a15.7,15.7,0,0,1,.75-2.62c.31-.86.65-1.7,1-2.53.75-1.66,1.72-3.22,2.63-4.8s2-3.06,2.9-4.6a40.89,40.89,0,0,0,2.67-4.68c0,.52.29.75-.11,1.31,1.64-.62,3.39-4.28,2.8-4.81.79-.78.72.25,1.46,0,1.4-.73,1.49-3.65,2.76-3.57.21,0-.06.51-.18.76.32-1,3.18-3.18,1.74-3.28a16.28,16.28,0,0,0,2.72-2.64A7.53,7.53,0,0,1,562.8,220c.23-1.83,3.77-2.54,3-4.12,1,1.53,4.5-1.75,5.42-3.36-.13.77,1.52-.38,1.42.62,1.5-1.15,2.8-2.33,2-2.93,2.08-.05,3.29-1.39,4.49-2.46s2.25-2.08,3.79-1.29a65.12,65.12,0,0,1,13.87-8.33c.22.9-1.13,1.34-2.37,1.92s-2.44,1.11-2,1.94c1-.62,2-1.24,2.82-1.84s1.69-1.11,2.53-1.62a15.85,15.85,0,0,1,5.82-2.32c1.27-.11-.47,1-.79,1.37a31.66,31.66,0,0,1,6.74-2c1.12-.21,2.23-.41,3.3-.68.54-.13,1.08-.28,1.6-.45s1.06-.31,1.58-.51c0,.17-.43.41-.84.61.83-.17,2,0,1.79-.81l-.8.34c-1.54-1,3.06-2.93,3.18-3.57-1.21,2.46,4.4.22,2.34,3.37.55-.2,1.22-.64,1.05-1.18.85.09,1.13.39.33,1.08a6.63,6.63,0,0,0,2.42-1,3.66,3.66,0,0,1,2.26-.55c0,.39-.56.57-.83,1a6.82,6.82,0,0,1,5.16-1.27c-.14.23.13.55-.58.53a42.68,42.68,0,0,0,5.57-.79,19.38,19.38,0,0,1,2.8-.28,10.91,10.91,0,0,1,3.08.46c-1.51,1.57,1.44.75,1.48,2.25.8-.07,1.61-.09,2.41-.09l-.84-.88c2,.39,4.1-.43,5.78.43-.55.08-1.1.18-1.65.31,1.31.11,2.6.36,3.91.53l-2.07-1c2.26-.29.16-1.9,2.86-.88-.61,0,2.1.45,2.93,1.64h0a5.26,5.26,0,0,1,3.74.41c.26.56-.79,1.49-.63,1.87,1.35-.88,4.79,1.16,6.46.39a1.12,1.12,0,0,0-.72,1.07l1.16-.64c.8.65.88.85.51,1.38,2.67,1.23-.19-2.11,2.78-.08-.29,0-.22.16-.81.1,3.07,1.71,6.5,2.11,9.16,4.06.15,1.76-2.67-.94-2.28.68,4.24,1.73,9.27,3,12.85,5.85l-.6-.62c1.71-1.38,2.17,2.78,4.57,3.31-.53-.22-1.29.51-1,.4a19,19,0,0,0,4,2.83c1.5.95,3.27,1.91,5.23,3.26h-.79c1,1.62,3.31,3.45,4.44,5.08.79,0,1.51.91,1.61-.13a12.1,12.1,0,0,0,2.18,4,34.61,34.61,0,0,0,3.07,3,23.73,23.73,0,0,1,3,3,8.5,8.5,0,0,1,1.7,3.77c-.37-.52-1.27-1-1-.56,1.05,1.12,2,2.34,2.93,3.52.59-.8.15-.8.23-2a5,5,0,0,1,2.47,2c-1.66-1.43-1.22.79-1.24,1.82.17-.27.59-.17.8-.38-.21,2.92,1.81-.59,2.51,2.83l-.52.09a10.18,10.18,0,0,1,2.41,2.92c-.7,1-1-.94-1.87-.6.89,1.61,3.54,2.35,3.25,4.38-.6-.6-1.07-1.64-1.72-2.2a5.57,5.57,0,0,0,.43,3.56l0-.14c.25,1,.53,2.05.76,3.07,0-.29,0-.57,0-.86a4,4,0,0,1,2.78,2.78,18,18,0,0,0,.81,1.85,5.84,5.84,0,0,0,1.43,1.88c-2.63-2.33-1.11-.15-2.33,0-.06.86,0,2.12-.46,1.9a2.25,2.25,0,0,1,.8,1.86,2.82,2.82,0,0,0,1.17,2.23c-.35.2.4,1.51-.64,1.46.82,1.73.53-.61,1-.59,1.08,1.22,1.05,3,1.16,4.94,0,.48.06,1,.12,1.45a12.42,12.42,0,0,0,.17,1.48,7.71,7.71,0,0,0,1.18,2.94,17.86,17.86,0,0,0,1.94,3.74c.32.49.64,1,1,1.56a11.83,11.83,0,0,1,.78,2.1c-.52,1.22-1.49-.81-1.49-.81a8.93,8.93,0,0,0,.36,5c-.35-.34-.63.05-1.05.6.15,1.39,1.45.88.94,2.76a5.82,5.82,0,0,1-1.61-1.36c.21.81.51,1.62.81,2.44a24,24,0,0,1,.67,2.52c-.68.45-1-1-1.45-1.63.27,1.9.57,4.94,1.55,5.6l.46-1.23c0,.71-.93.32-1.12-.2-.81-1.66.41-2.36.81-2.45l.23,1.23c1.15-.6,1.08-1.86.74-3.25s-1.08-2.91-1-4.14l1.7,1-1.47-2.49c.4-.56,1.32-1,1.62.23.73-1.86-.71-1.55.09-3.16.13-.18.21-.11.29,0l-.64-1.71c.38.31,1.14-.41,1,.7a6,6,0,0,0-.54-3.88c-.41-1-.75-1.73-.21-2.42l.14.25c-.57-2.15-1-2.19-1.35-2.09s-.89.34-1.89-1.12q1.28-1.35,2.55-2.76l-1.28-.17c0-.45-.17-1.35.34-1.29-1.2-1.46-.45.39-1.45-.38a8.06,8.06,0,0,0-.52-3.86c-.39-1.23-.61-2.28.25-2.79-1.11-.49-.1,2.2-1.37.15.91-.62.63-1.24.18-2a4,4,0,0,1-1-2.65c1.22.23,1.3,2.22,1.56,0-1.06-.28-1.28-1.22-1.35-2.31a7,7,0,0,0-.55-3c-.69.23-1.17-.56-1.67-1.73a26.35,26.35,0,0,0-1.92-3.83c.56-.06-1.61-5.15-2.5-7.72l.26-.05c-1.57.29-2.61-2.25-4-3.74.79-.4,1.29-.29,2.19.43-.32-.54-.68-1.06-1-1.59a3.5,3.5,0,0,1-2-1.41l1.18-.21a12.94,12.94,0,0,0-1.22-1.48l-1.44-1.4a12.78,12.78,0,0,1-2.59-3.56c-.91.5-.72,3.69-3.31,1.51.36-.43,1-1.12,1.75-.57-.23-.18-1-.52-1.16-1.12l1.56.48c-.58-1.39-1.08-.11-1.73-1.07.63-.48-.09-1,.5-1.29.24.18.37,1,.89,1.16A7.26,7.26,0,0,1,715.2,225c-.27.38-.82.69-1.53,0-1.68-1.85.16-1.27-.5-2.65-.79-.11-1.48-1.65-2.38-.87-.5-.54-.19-1-.16-1.44a23.82,23.82,0,0,1-2.63-2.1c-.94-.71-1.68-1.12-1.59-.16l.18.28c-.06,0-.12-.07-.19-.1h0a12.26,12.26,0,0,1-2.59-1.92c-.79-.73-1.56-1.5-2.3-2.31a21.71,21.71,0,0,0-4.8-4.32l.24-.31c-1.1-.62-2.3-1.33-3.43-2a8.78,8.78,0,0,0-3.19-1.34c-.61-.39-1.07-1.53-.55-1.76-1.79-.76-2.15-.56-4.23-2.47,2,.36-.27-.86,2,.54-2-1.52-2.19-2.39-5-2.73,1.3-.48-1.1-2-2.31-2.26l1.24,1.44a19.39,19.39,0,0,1-3.28-1.69l1.15-.91a8.16,8.16,0,0,0-3.26-1.81,18.85,18.85,0,0,0-3.41-.67c-2.25-.25-4.21-.65-5.65-2.51-1.6.46,2.44,1.5.92,2.15-2.15-.9-3.92-3.51-4.65-3.73-3-1.56-3.45,1-6.6-.27.32.55.39,1.87-2.12,1.77-2.22-.67-2.41-2.57-.87-2.62.56.08.8.29.74.44.78,0,1.81,0,1-.69l-.4.4a14.34,14.34,0,0,0-2.41-1c-.82-.32-1.41-.58-1-.91-1.86.15-.89.64.37,1.1-2.89-1.15-4.68-.89-7.74-1.66.47.31.85.92.36.86-2.24-.56-2.77-.4-3.12-.11s-.52.68-2.06.69c-1.69-.84.76-1.68-2.4-1.28-1.88-.62-.35-1.29.45-1.62a6.32,6.32,0,0,1-2.1.15,8.29,8.29,0,0,1-1.89-.3,29.93,29.93,0,0,0-3.06-.83l1.54-.36a10.18,10.18,0,0,1-2.44.19c.29.3.59.63.88.95-.9-.19-1.65-.13-1.65-.54-.9.66.73,1.56-1,2.47-1.2-.43-3.54.61-4-.57,3.73.24-.49-1.27,2.67-1.6a5.57,5.57,0,0,1-2.27.07c-.14-.13.11-.28.36-.35-3.68-.85-1.56,1.55-5.24,1.83.4-.76-1-1.27-1.59-1,1.5-.18.84,1.09-.44,1.81-2.41-.23-2.48.75-3.71.85l1.43.07c-.36.76-1.53.82-3.09,1.36-.23-.52,1.39-.65.78-.78-1.54,1.58-4.29-.58-6.59.88-1.26-.19-.41-1.27-1.51-1.35-2.57,1.54-3.27-.14-6,1.42,1.12.67,1.18.41-.57,1.89l4.55-2-2.65,2.22c1.42-.38,2.82-1.48,3.74-1.51-1.26,1.11-1.16.88-.28,1.44-2.31-.8-3.6,1.86-6.07,1.67l-.66-2.27a9.31,9.31,0,0,0-4.74,1.81,18.8,18.8,0,0,1-5.23,2.67c.5-.08,1-.18,1.51-.22-.2,1.08-2.52,1.28-3.71,2.23-.21-.77-1.18-.65-2-.82.33.49-3,1.51-2.66,3.09-.76,0-1.55,0-2.3.05-3.44,1.51-2.55,4-5.61,5.7.43-1.3-1.24-.89.44-2.71-1,.64-2,1.1-1.7,1.57-.43,0-1,.64-1.57,1.33s-1.21,1.39-1.87,1.4c-.21.58.14,1.34-1,2.05-.21,0-.22-.31-.22-.31.21.3-1.33,1.66.1,1.66a6.64,6.64,0,0,0-3.1,1.12,17.31,17.31,0,0,0-1.48,1c-.47.39-.92.82-1.37,1.24a34.93,34.93,0,0,1-2.68,2.35,6,6,0,0,1-2.68,1.38c-.85,1-1.78,2.06-2.65,3.16s-1.77,2.1-2.52,3c-.08-.27-.29-.26.06-.54-2.66,2,.4,3-2.56,5.21-1.07.32-.91-.16-.61-.66s.76-1,.19-.69c-1.18-.65-1.79.31-2.46,1.51s-1.38,2.67-2.69,3.26l.23-.59c-1.82,1.06-1.94,4.33-3.69,6.86,0,0-.11-.25-.32-.23a16.22,16.22,0,0,1-1,4.34c-.51,1.58-1.23,3.14-1.7,4.55-.49-1.28.13-1.44-1-1.42-.47,1.25,1.64.43.72,2.9-.87.51-2.19,2-3.27,1.76.32-.78.71-1.52,1.06-2.28a2.19,2.19,0,0,0-1.5,1.81,7.49,7.49,0,0,1-.63,2.25l-.5-.41c-1.43,3.63.09,4.29-1.5,8.07l.59-.23c.69,2.61-1.44,1.48-1.06,4l-1.71.16c0,.38,0,.91-.08,1.53s0,1.34,0,2.09c0,1.49-.13,3.09-.26,4.42-.82-1.73-.53-4.89-.67-7-.43,1.42-1.24,4.91-.69,5.83,0-.61-.16-1.43.23-1.94a13.46,13.46,0,0,1,.15,7.32c-1.48-.56-2,1.29-2.47,3.5s-.78,4.77-2.1,5.71c.06.67.08,1.34.08,2s0,1.33,0,2c-.06,1.32-.27,2.64-.44,4a45.5,45.5,0,0,0-.47,8.64c2.31-2.26.13,1.8,2.56,1.29.21,1.4.26,1.93.1,2.07-.36,1.45-.74,2.92-1.08,4.4-.28.55-.47.23-.63-.21s-.3-1-.57-.9c.14,3.16-.88,1.43-1.26,3.6.81-.53,1.39.93,1.3,2.77l.78-2.68a4.84,4.84,0,0,1,.24,4.11,4.62,4.62,0,0,0,.38,4.15l-1-1.24c.82,2.17,1.89,8.31,4.46,9.86-.16.46-.65,1.17-1.1.26a18.15,18.15,0,0,0,1.48,4c.64,1.33,1.3,2.65,2.05,3.9s1.39,2.48,1.93,3.66a11.44,11.44,0,0,1,1.17,3.36l-.71-.12c.59.85,1.72,1.13,1.77,2.51-.25.05-.72-.1-.53.34.43.39,2.16,1.91,2.47,3.26l-1.12-.7a10.78,10.78,0,0,0,1.67,3.17,17.74,17.74,0,0,0,2.07,2.29,35.31,35.31,0,0,1,4.45,4.17c-1.45,1,.44,4.75,1.54,6.56l-.25.09a29.17,29.17,0,0,0,2.83,3.33c1,1,2,1.8,3,2.61s2.11,1.54,3.18,2.31,2.14,1.59,3.31,2.42a9.89,9.89,0,0,0,1.84,3.06,37,37,0,0,0,3.26,3.25c1.19,1.13,2.56,2.15,3.81,3.24s2.49,2.12,3.5,3.17c-.53-.77.91-1,1.83-.61.87,1.11,3.74,1,2.68,2.25l-.39-.28c0,1.85,2.54,3.05,4.42,4.11l1.36-1.66a9.38,9.38,0,0,0,3.56,3.27,26.1,26.1,0,0,0,4.7,2c1.6.52,3.11,1,4.36,1.59a5.1,5.1,0,0,1,2.7,2.09c1.44,0,3,.55,4.47.46l-.43,1.06a40.58,40.58,0,0,0,4.53,1.7c.73.22,1.49.43,2.36.65l1.38.32,1.61.28-1.12.58c2.59.63,3.95-2.43,6.28-2.06l.4,1.78c2.25.37,4.45,1.14,6.71,1.54a21.93,21.93,0,0,0,3.41.43,13,13,0,0,0,3.44-.43,1,1,0,0,1-1,.75c2.12.28,8.35,1.41,7.56-.91.05,1.57,4.72,0,7.09-.74l-.31,1.14c2-1.59,2-2,4.8-2.62.69.08.69.83-.24.63,2.32.34,1.62-1.27,4.4-1l-.91.84c2.32-.24,2.09-.55,3.2-1.61,1.35-.71,4.35-.52,4.91.38a3,3,0,0,1,2.62-1.8c.27.33-.16.67-.38.84a9.22,9.22,0,0,0,2.55-.46,15,15,0,0,0,1.92-.93,6,6,0,0,1,3.62-1,.82.82,0,0,0,.64.49,40.84,40.84,0,0,1-5.19,1.37c.26,1,2.75.45,1.19,2.39.89-.66,2-1.64,3.28-2.48a9.23,9.23,0,0,1,3.75-1.82,1.39,1.39,0,0,1,.43.23l-.2.19a2.82,2.82,0,0,0,1.41-.67,9.83,9.83,0,0,0,2-.46c.57.66,2.89-.62,4-1.13-.54-1,1-1.5-.75-1.72.21,0-.16.23-.9.61a2.07,2.07,0,0,0-.45.3.56.56,0,0,1,0-.12c-.75.33-1.73.75-2.86,1.22a3.41,3.41,0,0,1,3-1.66c.32-.9.64-1.89.86-2.36a12.64,12.64,0,0,0,3.68.42c1.22,0,2.25,0,2.68.31,1.57-1.16,3.54-2.28,5.18-3.6a17.26,17.26,0,0,0,2.2-2,6.15,6.15,0,0,0,1.24-2.23c.76-.8,1.37-.16,1.89-.1-.41.52-1.05.89-1.17,1.33.75-.83,2.11-1.68,3.13-2.66s1.84-1.87,1.61-2.62c2.59-1-.41,2,2.43-.41l-.12.67a11.51,11.51,0,0,0,4.3-2.82,31.26,31.26,0,0,0,2.83-3.88,26.6,26.6,0,0,1,2.82-4,14.15,14.15,0,0,1,4.42-3.39c-.52.28-.78.43-1,.34.46-.36.91-.73,1.35-1.12s.83-.82,1.24-1.25c.81-.84,1.6-1.72,2.35-2.63,1.42-1.9,2.87-3.79,4.1-5.83,2.65-3.95,4.91-8.05,8.08-11.55,1.56-2.13.85-2.82.91-4.53l1.35,0c0-1-.1-2.05-.16-3.05a5.51,5.51,0,0,1,1.11-2.48c.52-.73,1.13-1.41,1.75-2.13a11.31,11.31,0,0,0,1.66-2.41,6.84,6.84,0,0,0,.57-3.32l-1,.34a28.48,28.48,0,0,0,1-3.22c.27-1.08.57-1.9,1-1.63-.1-.22-.67-.78-.08-1.32l.63.11c0-.74,0-1.47,0-2.2l-.07-2.2c.58-1.56,1.17-1.31,1.75-1.25s1.23-.06,1.71-2.47c.07-1.87-1-5.4-1.49-4.78-.15.71-.69,1.76-1.33,1.71l0-1.65c-1.79-.58-3.49-2-5.41,1.56l.68,2.82-1.07.66c.16-.73.26-1.46.36-2.2-1,1.09-.47,2-.16,3a1.83,1.83,0,0,0-1.22.87l1.17,2.95c-.79.12-1.11-1.47-2,.11.48,1.38,1.9-.73,1.88,1.36-1.15,1-1.72.47-1.42,2.11-.51.06-.72-.33-.77-1a8.49,8.49,0,0,1-.19,2.37,2.64,2.64,0,0,0,.15,2,4.79,4.79,0,0,0-1.3,2.44c-.34.87-.73,1.53-1.53,1.16a7.81,7.81,0,0,1,.08,3.85c-.58-1.45-1-.38-1.6.81s-1.28,2.58-2.18,1.84c.55,1.14.08,2.56-.57,4.06l-1,2.31a10,10,0,0,0-.76,2.3c0-.22-.16-.64.05-.82-.94,1.35-1.67,1.47-2.49,2.19,1.23,1,.16,3.33.22,5-2.35.87-.88-2.05-2.44-2.3.56.3.37,1.21.17,2s-.43,1.55.21,1.58c-1.66.72-1.14.82-2.65.71,1.42,1.36-.53,1.37-.37,3.08-2.14,1.17-1.8-.68-2.83,1.61C709.1,360.57,709.87,358.45,709.87,358.45ZM665.2,394.21v0l1.13-.46Zm-4.7,1.54a20.91,20.91,0,0,0,2.07-.57.5.5,0,0,1-.26.88C662.5,395.74,661.3,395.85,660.5,395.75Zm12.82,3.73c-.72.46-1.07.36-1.26.19.36-.16.78-.37,1.31-.67a.75.75,0,0,0,0-.16A1.35,1.35,0,0,1,673.32,399.48Z" transform="translate(-375.11 -52.5)"/><path class="cls-2" d="M674.15,397.57a2.5,2.5,0,0,1,.28-.22l-.56,0-.13.44Z" transform="translate(-375.11 -52.5)"/><path class="cls-2" d="M706.41,217.78l-.06-.1a.72.72,0,0,1,0,.28A.92.92,0,0,1,706.41,217.78Z" transform="translate(-375.11 -52.5)"/><polygon class="cls-2" points="219.15 338.5 219.05 338.77 219.53 338.69 219.15 338.5"/><path class="cls-2" d="M720.79,242a.75.75,0,0,0-.06.46A.92.92,0,0,0,720.79,242Z" transform="translate(-375.11 -52.5)"/><path class="cls-2" d="M726.08,252.55l.33,1.68A10.09,10.09,0,0,0,726.08,252.55Z" transform="translate(-375.11 -52.5)"/><path class="cls-2" d="M729,261.15a1.47,1.47,0,0,0,.51,0v0Z" transform="translate(-375.11 -52.5)"/><path class="cls-2" d="M615.26,194.52a1.89,1.89,0,0,0-.34.09C614.16,195,614.69,194.77,615.26,194.52Z" transform="translate(-375.11 -52.5)"/><path class="cls-2" d="M657.84,194.18a9.28,9.28,0,0,1-1.48.15C657.08,194.62,657.65,194.8,657.84,194.18Z" transform="translate(-375.11 -52.5)"/><path class="cls-2" d="M572.68,213.17s0,0,0,0l-.24.17Z" transform="translate(-375.11 -52.5)"/><path class="cls-2" d="M654.41,193.88a3.65,3.65,0,0,0,2,.45A5.4,5.4,0,0,0,654.41,193.88Z" transform="translate(-375.11 -52.5)"/><path class="cls-2" d="M734.43,299.64l-.06.43a.3.3,0,0,1,.18.06Z" transform="translate(-375.11 -52.5)"/><path class="cls-2" d="M734.55,300.13l.1.49C734.67,300.4,734.67,300.21,734.55,300.13Z" transform="translate(-375.11 -52.5)"/><path class="cls-2" d="M734.87,301.65l-.22-1C734.63,301,734.56,301.4,734.87,301.65Z" transform="translate(-375.11 -52.5)"/><path class="cls-2" d="M734.67,287.7l-.42-.11A.68.68,0,0,0,734.67,287.7Z" transform="translate(-375.11 -52.5)"/><path class="cls-2" d="M734.23,284.09c0,.87-.67,2.25-.31,3.42l.33.08C733.59,287.09,735,284.84,734.23,284.09Z" transform="translate(-375.11 -52.5)"/><path class="cls-2" d="M736.27,267.89c.17,1.06.29,2.13.44,3.18.29-.64.69-1.5,1.13-.1C738.15,266.72,737.1,272,736.27,267.89Z" transform="translate(-375.11 -52.5)"/><path class="cls-2" d="M733.87,258.24c.75,1.56.58-.24.84-.24C734,257.1,733.77,256.9,733.87,258.24Z" transform="translate(-375.11 -52.5)"/><path class="cls-2" d="M689.38,203.28l.69-.77C688.86,201.92,689.85,202.84,689.38,203.28Z" transform="translate(-375.11 -52.5)"/><path class="cls-2" d="M675.08,201.48c.29.36.57.71.84,1.1l.93-.58C676.27,201.81,675.68,201.63,675.08,201.48Z" transform="translate(-375.11 -52.5)"/><polygon class="cls-2" points="295.41 139.18 296.02 139.25 293.78 138.79 295.41 139.18"/><path class="cls-2" d="M555.91,214l1.15.66C557.59,213.88,556.79,212.68,555.91,214Z" transform="translate(-375.11 -52.5)"/><path class="cls-2" d="M527.86,258a2.45,2.45,0,0,0-1.36,2.66C526.94,259.54,527.78,258.59,527.86,258Z" transform="translate(-375.11 -52.5)"/><path class="cls-2" d="M577.77,394.54l-1.14-.16c.64.22,1.28.47,1.94.66C578.3,394.87,578,394.72,577.77,394.54Z" transform="translate(-375.11 -52.5)"/><text class="cls-3" transform="translate(0 302.1)">Ho</text><rect class="cls-4" x="116.39" y="256" width="255" height="49"/><text class="cls-3" transform="translate(113.99 302.1)">rariu<tspan class="cls-5" x="201.63" y="0">m</tspan></text><line x1="257.39" x2="257.39" y2="243.01"/><polygon points="260.28 42.25 257.39 243.01 254.5 42.25 260.28 42.25"/><path d="M632.5,52.5c-7.38,19.87-20,44.54-33.29,59.83l33.29-12,33.28,12C652.45,97,639.87,72.37,632.5,52.5Z" transform="translate(-375.11 -52.5)"/><polygon points="148.04 131.71 257.03 243.15 145.59 134.16 148.04 131.71"/><path d="M504.86,168.36c5.05,11,9.93,26.06,10.72,37.63l8.59-18.32,18.31-8.58C530.92,178.29,515.87,173.41,504.86,168.36Z" transform="translate(-375.11 -52.5)"/></svg>